<mxfile host="app.diagrams.net" modified="2023-12-22T17:16:04.759Z" agent="Mozilla/5.0 (Windows NT 10.0; Win64; x64) AppleWebKit/537.36 (KHTML, like Gecko) Chrome/120.0.0.0 Safari/537.36 Edg/120.0.0.0" etag="ZibjAIu3qtVvU0h1_SrJ" version="22.1.11" type="github">
  <diagram name="Página-1" id="99nM4WhFxuQZ9rbI-EJJ">
    <mxGraphModel dx="1426" dy="785" grid="1" gridSize="10" guides="1" tooltips="1" connect="1" arrows="1" fold="1" page="1" pageScale="1" pageWidth="827" pageHeight="1169" math="0" shadow="0">
      <root>
        <mxCell id="0" />
        <mxCell id="1" parent="0" />
        <mxCell id="JNu_L3kMzaR1ub78Koap-12" value="IMAGE" style="rounded=1;whiteSpace=wrap;html=1;fillColor=#dae8fc;strokeColor=#6c8ebf;" vertex="1" parent="1">
          <mxGeometry x="40" y="40" width="120" height="60" as="geometry" />
        </mxCell>
        <mxCell id="JNu_L3kMzaR1ub78Koap-13" value="CONTAINER&amp;nbsp;" style="rounded=1;whiteSpace=wrap;html=1;fillColor=#f8cecc;strokeColor=#b85450;" vertex="1" parent="1">
          <mxGeometry x="680" y="40" width="120" height="60" as="geometry" />
        </mxCell>
        <mxCell id="JNu_L3kMzaR1ub78Koap-14" value="" style="endArrow=classic;html=1;rounded=0;" edge="1" parent="1">
          <mxGeometry width="50" height="50" relative="1" as="geometry">
            <mxPoint x="170" y="70" as="sourcePoint" />
            <mxPoint x="670" y="70" as="targetPoint" />
          </mxGeometry>
        </mxCell>
        <mxCell id="JNu_L3kMzaR1ub78Koap-15" value="&amp;nbsp; docker container run [OPTION] IMAGE [COMMAND] [ARG..]&amp;nbsp;&amp;nbsp;" style="edgeLabel;html=1;align=center;verticalAlign=middle;resizable=0;points=[];" vertex="1" connectable="0" parent="JNu_L3kMzaR1ub78Koap-14">
          <mxGeometry x="-0.0187" y="2" relative="1" as="geometry">
            <mxPoint y="1" as="offset" />
          </mxGeometry>
        </mxCell>
        <mxCell id="JNu_L3kMzaR1ub78Koap-16" value="&lt;font color=&quot;#004080&quot; style=&quot;font-size: 14px;&quot;&gt;&lt;b&gt;OPTION&lt;/b&gt;&lt;/font&gt;" style="swimlane;fontStyle=0;childLayout=stackLayout;horizontal=1;startSize=30;horizontalStack=0;resizeParent=1;resizeParentMax=0;resizeLast=0;collapsible=1;marginBottom=0;whiteSpace=wrap;html=1;fillColor=#e1d5e7;strokeColor=#9673a6;" vertex="1" parent="1">
          <mxGeometry x="10" y="150" width="250" height="290" as="geometry">
            <mxRectangle x="10" y="150" width="90" height="30" as="alternateBounds" />
          </mxGeometry>
        </mxCell>
        <mxCell id="JNu_L3kMzaR1ub78Koap-19" value="&amp;gt; &lt;b&gt;--name&lt;/b&gt; -&amp;gt; nombramos el container&lt;br&gt;&amp;gt;&lt;b&gt; --detach&lt;/b&gt; -&amp;gt; se ejecuta en segundo plano&lt;br&gt;&amp;gt; &lt;b&gt;--rm&lt;/b&gt; -&amp;gt; una vez parado se elimina&amp;nbsp;&lt;br&gt;&amp;gt;&lt;b&gt; -it&lt;/b&gt; -&amp;gt; corremos el contenedor en modo interactivo&lt;br&gt;&amp;gt; &lt;b&gt;--network&lt;/b&gt; -&amp;gt; le seleccionamos la red&amp;nbsp;&lt;br&gt;&amp;gt; &lt;b&gt;--publish&lt;/b&gt; -&amp;gt; publica los puertos del contenedor&lt;br&gt;&amp;gt; &lt;b&gt;--env &lt;/b&gt;-&amp;gt; crea variables de entorno dentro del contenedor&lt;br&gt;&amp;gt; &lt;b&gt;--entrypoint&lt;/b&gt; -&amp;gt; modifica el entrypoint del contenedor&amp;nbsp;" style="text;strokeColor=none;fillColor=none;align=left;verticalAlign=top;spacingLeft=4;spacingRight=4;overflow=hidden;points=[[0,0.5],[1,0.5]];portConstraint=eastwest;rotatable=0;whiteSpace=wrap;html=1;" vertex="1" parent="JNu_L3kMzaR1ub78Koap-16">
          <mxGeometry y="30" width="250" height="260" as="geometry" />
        </mxCell>
        <mxCell id="JNu_L3kMzaR1ub78Koap-20" value="" style="curved=1;endArrow=classic;html=1;rounded=0;entryX=0.643;entryY=0;entryDx=0;entryDy=0;entryPerimeter=0;" edge="1" parent="1" target="JNu_L3kMzaR1ub78Koap-16">
          <mxGeometry width="50" height="50" relative="1" as="geometry">
            <mxPoint x="380" y="80" as="sourcePoint" />
            <mxPoint x="120" y="130" as="targetPoint" />
            <Array as="points">
              <mxPoint x="220" y="80" />
            </Array>
          </mxGeometry>
        </mxCell>
        <mxCell id="JNu_L3kMzaR1ub78Koap-24" value="&lt;font color=&quot;#004080&quot;&gt;&lt;span style=&quot;font-size: 14px;&quot;&gt;&lt;b&gt;COMMAND&lt;/b&gt;&lt;/span&gt;&lt;/font&gt;" style="swimlane;fontStyle=0;childLayout=stackLayout;horizontal=1;startSize=30;horizontalStack=0;resizeParent=1;resizeParentMax=0;resizeLast=0;collapsible=1;marginBottom=0;whiteSpace=wrap;html=1;fillColor=#e1d5e7;strokeColor=#9673a6;" vertex="1" parent="1">
          <mxGeometry x="289" y="150" width="250" height="290" as="geometry">
            <mxRectangle x="289" y="150" width="90" height="30" as="alternateBounds" />
          </mxGeometry>
        </mxCell>
        <mxCell id="JNu_L3kMzaR1ub78Koap-33" value="&lt;p style=&quot;line-height: 120%;&quot;&gt;Si añadimos un comando despues de la imagen se ejecutrara una vez haya terminado de ejecutarse por ejemplo:&amp;nbsp;&lt;br&gt;&lt;b&gt;&lt;font color=&quot;#006600&quot;&gt;docker container run ubuntu:22.04 ls -la /&lt;/font&gt;&lt;/b&gt;&amp;nbsp; &amp;nbsp; &amp;nbsp;-&amp;gt; nos muestra una vez finalizado los elementos de raiz&lt;/p&gt;" style="text;strokeColor=none;fillColor=none;align=left;verticalAlign=top;spacingLeft=4;spacingRight=4;overflow=hidden;points=[[0,0.5],[1,0.5]];portConstraint=eastwest;rotatable=0;whiteSpace=wrap;html=1;horizontal=1;" vertex="1" parent="JNu_L3kMzaR1ub78Koap-24">
          <mxGeometry y="30" width="250" height="260" as="geometry" />
        </mxCell>
        <mxCell id="JNu_L3kMzaR1ub78Koap-26" value="&lt;font color=&quot;#004080&quot;&gt;&lt;span style=&quot;font-size: 14px;&quot;&gt;&lt;b&gt;ARGS&lt;/b&gt;&lt;/span&gt;&lt;/font&gt;" style="swimlane;fontStyle=0;childLayout=stackLayout;horizontal=1;startSize=30;horizontalStack=0;resizeParent=1;resizeParentMax=0;resizeLast=0;collapsible=1;marginBottom=0;whiteSpace=wrap;html=1;fillColor=#e1d5e7;strokeColor=#9673a6;verticalAlign=top;" vertex="1" parent="1">
          <mxGeometry x="560" y="150" width="250" height="290" as="geometry">
            <mxRectangle x="560" y="150" width="90" height="30" as="alternateBounds" />
          </mxGeometry>
        </mxCell>
        <mxCell id="JNu_L3kMzaR1ub78Koap-28" value="" style="curved=1;endArrow=classic;html=1;rounded=0;entryX=0.564;entryY=0;entryDx=0;entryDy=0;entryPerimeter=0;" edge="1" parent="1" target="JNu_L3kMzaR1ub78Koap-24">
          <mxGeometry width="50" height="50" relative="1" as="geometry">
            <mxPoint x="480" y="80" as="sourcePoint" />
            <mxPoint x="450" y="410" as="targetPoint" />
            <Array as="points">
              <mxPoint x="460" y="80" />
            </Array>
          </mxGeometry>
        </mxCell>
        <mxCell id="JNu_L3kMzaR1ub78Koap-29" value="" style="curved=1;endArrow=classic;html=1;rounded=0;entryX=0.475;entryY=0.001;entryDx=0;entryDy=0;entryPerimeter=0;" edge="1" parent="1" target="JNu_L3kMzaR1ub78Koap-26">
          <mxGeometry width="50" height="50" relative="1" as="geometry">
            <mxPoint x="540" y="80" as="sourcePoint" />
            <mxPoint x="480" y="310" as="targetPoint" />
            <Array as="points">
              <mxPoint x="630" y="100" />
            </Array>
          </mxGeometry>
        </mxCell>
        <mxCell id="JNu_L3kMzaR1ub78Koap-39" value="CONTAINER 1&amp;nbsp;" style="rounded=1;whiteSpace=wrap;html=1;fillColor=#ffcccc;strokeColor=#36393d;" vertex="1" parent="1">
          <mxGeometry x="44" y="520" width="120" height="60" as="geometry" />
        </mxCell>
        <mxCell id="JNu_L3kMzaR1ub78Koap-40" value="CONTAINER 2&amp;nbsp;" style="rounded=1;whiteSpace=wrap;html=1;fillColor=#cce5ff;strokeColor=#36393d;" vertex="1" parent="1">
          <mxGeometry x="664" y="520" width="120" height="60" as="geometry" />
        </mxCell>
        <mxCell id="JNu_L3kMzaR1ub78Koap-41" value="" style="endArrow=classic;startArrow=classic;html=1;rounded=0;entryX=0;entryY=0.5;entryDx=0;entryDy=0;exitX=1;exitY=0.5;exitDx=0;exitDy=0;" edge="1" parent="1" source="JNu_L3kMzaR1ub78Koap-39" target="JNu_L3kMzaR1ub78Koap-40">
          <mxGeometry width="50" height="50" relative="1" as="geometry">
            <mxPoint x="184" y="570" as="sourcePoint" />
            <mxPoint x="234" y="520" as="targetPoint" />
          </mxGeometry>
        </mxCell>
        <mxCell id="JNu_L3kMzaR1ub78Koap-45" value="&amp;nbsp; Host&amp;nbsp;&amp;nbsp;" style="edgeLabel;html=1;align=center;verticalAlign=middle;resizable=0;points=[];" vertex="1" connectable="0" parent="JNu_L3kMzaR1ub78Koap-41">
          <mxGeometry relative="1" as="geometry">
            <mxPoint as="offset" />
          </mxGeometry>
        </mxCell>
        <mxCell id="JNu_L3kMzaR1ub78Koap-42" value="" style="endArrow=classic;startArrow=classic;html=1;rounded=0;entryX=0;entryY=0;entryDx=0;entryDy=0;exitX=1;exitY=0;exitDx=0;exitDy=0;" edge="1" parent="1" source="JNu_L3kMzaR1ub78Koap-39" target="JNu_L3kMzaR1ub78Koap-40">
          <mxGeometry width="50" height="50" relative="1" as="geometry">
            <mxPoint x="234" y="540" as="sourcePoint" />
            <mxPoint x="284" y="490" as="targetPoint" />
          </mxGeometry>
        </mxCell>
        <mxCell id="JNu_L3kMzaR1ub78Koap-44" value="&amp;nbsp; Bridge&amp;nbsp;&amp;nbsp;" style="edgeLabel;html=1;align=center;verticalAlign=middle;resizable=0;points=[];" vertex="1" connectable="0" parent="JNu_L3kMzaR1ub78Koap-42">
          <mxGeometry relative="1" as="geometry">
            <mxPoint as="offset" />
          </mxGeometry>
        </mxCell>
        <mxCell id="JNu_L3kMzaR1ub78Koap-43" value="" style="endArrow=classic;startArrow=classic;html=1;rounded=0;entryX=0;entryY=1;entryDx=0;entryDy=0;exitX=1;exitY=1;exitDx=0;exitDy=0;" edge="1" parent="1" source="JNu_L3kMzaR1ub78Koap-39" target="JNu_L3kMzaR1ub78Koap-40">
          <mxGeometry width="50" height="50" relative="1" as="geometry">
            <mxPoint x="274" y="640" as="sourcePoint" />
            <mxPoint x="324" y="590" as="targetPoint" />
          </mxGeometry>
        </mxCell>
        <mxCell id="JNu_L3kMzaR1ub78Koap-46" value="&amp;nbsp; Null&amp;nbsp;&amp;nbsp;" style="edgeLabel;html=1;align=center;verticalAlign=middle;resizable=0;points=[];" vertex="1" connectable="0" parent="JNu_L3kMzaR1ub78Koap-43">
          <mxGeometry relative="1" as="geometry">
            <mxPoint as="offset" />
          </mxGeometry>
        </mxCell>
        <mxCell id="JNu_L3kMzaR1ub78Koap-49" value="&lt;h1&gt;Bridge&lt;/h1&gt;&lt;div&gt;&lt;div&gt;&lt;b&gt;Definición:&lt;/b&gt; El modo de red &quot;bridge&quot; es el modo de red predeterminado en Docker. En este modo, Docker crea un puente de red privado en el host y asigna una interfaz de red a cada contenedor.&lt;/div&gt;&lt;div&gt;&lt;br&gt;&lt;/div&gt;&lt;div&gt;&lt;b&gt;Uso típico&lt;/b&gt;: Es útil para situaciones donde los contenedores necesitan comunicarse entre sí en una red privada. También permite que los contenedores se conecten a redes externas a través de NAT.&lt;/div&gt;&lt;/div&gt;" style="text;html=1;strokeColor=none;fillColor=none;spacing=5;spacingTop=-20;whiteSpace=wrap;overflow=hidden;rounded=0;" vertex="1" parent="1">
          <mxGeometry x="40" y="620" width="190" height="270" as="geometry" />
        </mxCell>
      </root>
    </mxGraphModel>
  </diagram>
</mxfile>
